# xmcd
#
# Track frame offsets: 
#        150
#        12858
#        24551
#        36743
#        48361
#        61512
#        74296
#        87842
#        101797
#        114734
#        123527
#        136496
#
# Disc length: 1945 seconds
#
# Revision: 0
# Processed by: cddbd v1.5.2PL0 Copyright (c) Steve Scherf et al.
# Submitted via: ExactAudioCopyFreeDBPlugin 1.0
#
DISCID=a607970c
DTITLE=Merle Haggard snd the Strangers - Pride In What I Am
DYEAR=1969
DGENRE=Country
TTITLE0=I Take A Lot Of Pride In What I Am
TTITLE1=Who'll Buy The Wine
TTITLE2=The Day The Rains Come
TTITLE3=It Meant Goodbye To Me When You Said Hello To Him
TTITLE4=I Can't Hold Myself In Line
TTITLE5=I'm Bringin' Home Good News
TTITLE6=Keep Me From Cryin' Today
TTITLE7=I Just Want To Look At You One More Time
TTITLE8=Somewhere On Skid Row
TTITLE9=I'm Free
TTITLE10=California Blues
TTITLE11=I Think We're Livin' In The Good Old Days
EXTD=
EXTT0=
EXTT1=
EXTT2=
EXTT3=
EXTT4=
EXTT5=
EXTT6=
EXTT7=
EXTT8=
EXTT9=
EXTT10=
EXTT11=
PLAYORDER=
